<svg width="176" height="37" viewBox="0 0 176 37" fill="none" xmlns="http://www.w3.org/2000/svg">
<path d="M1.80516 25C1.08516 25 0.725156 24.64 0.725156 23.92C0.725156 23.2 1.08516 22.84 1.80516 22.84C6.60516 22.84 9.90516 22.48 11.7052 21.76C12.5452 21.424 12.9652 21.076 12.9652 20.716C12.9652 20.356 12.6652 20.032 12.0652 19.744C11.4892 19.456 10.5052 19.084 9.11316 18.628C7.74516 18.172 6.70116 17.788 5.98116 17.476C2.47716 16.012 0.725156 13.792 0.725156 10.816C0.725156 8.872 1.56516 7.24 3.24516 5.92C4.92516 4.576 6.94116 3.904 9.29316 3.904C10.5892 3.904 11.6692 4.288 12.5332 5.056C13.4212 5.824 13.8652 6.748 13.8652 7.828C13.8652 8.908 13.4452 9.868 12.6052 10.708C11.7652 11.548 11.1892 11.968 10.8772 11.968C10.1572 11.968 9.79716 11.608 9.79716 10.888C9.79716 10.576 10.1092 10.108 10.7332 9.484C11.3812 8.836 11.7052 8.344 11.7052 8.008C11.7052 7.432 11.4772 6.964 11.0212 6.604C10.5892 6.244 10.0252 6.064 9.32916 6.064C7.55316 6.064 6.02916 6.52 4.75716 7.432C3.50916 8.32 2.88516 9.4 2.88516 10.672C2.88516 11.944 3.23316 12.94 3.92916 13.66C4.64916 14.38 5.45316 14.932 6.34116 15.316C7.25316 15.676 8.16516 16.012 9.07716 16.324C9.98916 16.612 10.7452 16.876 11.3452 17.116C11.9692 17.332 12.5932 17.608 13.2172 17.944C14.4892 18.64 15.1252 19.552 15.1252 20.68C15.1252 22.144 14.0692 23.236 11.9572 23.956C9.86916 24.652 6.48516 25 1.80516 25ZM21.622 36.232C20.974 36.232 20.614 35.872 20.542 35.152C20.422 33.904 19.966 31 19.174 26.44C18.406 21.904 18.022 19.144 18.022 18.16C18.022 16.336 18.874 14.86 20.578 13.732C22.282 12.604 24.19 12.04 26.302 12.04C27.886 12.04 29.182 12.496 30.19 13.408C31.198 14.32 31.702 15.544 31.702 17.08C31.702 17.992 31.438 18.832 30.91 19.6C30.406 20.368 29.794 20.968 29.074 21.4C27.538 22.36 26.254 22.84 25.222 22.84C24.502 22.84 24.142 22.48 24.142 21.76C24.142 21.112 24.502 20.764 25.222 20.716C25.966 20.644 26.866 20.26 27.922 19.564C29.002 18.868 29.542 18.052 29.542 17.116C29.542 16.156 29.254 15.436 28.678 14.956C28.102 14.452 27.19 14.2 25.942 14.2C24.718 14.2 23.446 14.56 22.126 15.28C20.83 16 20.182 16.912 20.182 18.016C20.182 19.12 20.686 22.6 21.694 28.456L22.09 26.08C22.21 25.36 22.57 25 23.17 25C23.89 25 24.25 25.36 24.25 26.08C24.25 26.2 24.238 26.332 24.214 26.476L22.81 35.152C22.786 35.368 22.678 35.596 22.486 35.836C22.294 36.1 22.006 36.232 21.622 36.232ZM50.0789 22.048C50.0789 22.048 50.4629 21.952 51.2309 21.76C51.9509 21.76 52.3109 22.12 52.3109 22.84C52.3109 23.368 51.9509 23.752 51.2309 23.992C50.7989 24.136 50.3669 24.208 49.9349 24.208C49.5269 24.208 49.1309 24.112 48.7469 23.92C48.3629 23.728 48.0629 23.44 47.8469 23.056C47.4869 22.432 47.2229 21.76 47.0549 21.04L46.9109 20.428C46.5029 21.124 45.5069 21.94 43.9229 22.876C42.3629 23.812 40.6949 24.28 38.9189 24.28C37.9589 24.28 37.1189 23.92 36.3989 23.2C35.6789 22.48 35.3189 21.64 35.3189 20.68C35.3189 18.352 36.2789 16.336 38.1989 14.632C40.1189 12.904 42.0629 12.04 44.0309 12.04C45.1109 12.04 46.0349 12.244 46.8029 12.652C47.5949 13.036 47.9909 13.432 47.9909 13.84C47.9909 14.56 47.6309 14.92 46.9109 14.92C46.7669 14.92 46.4189 14.8 45.8669 14.56C45.3149 14.32 44.7029 14.2 44.0309 14.2C42.7349 14.2 41.3189 14.836 39.7829 16.108C38.2469 17.356 37.4789 18.88 37.4789 20.68C37.4789 21.04 37.6229 21.376 37.9109 21.688C38.2229 21.976 38.5589 22.12 38.9189 22.12C40.3349 22.12 41.6549 21.748 42.8789 21.004C44.1029 20.236 44.8829 19.612 45.2189 19.132C45.5549 18.628 45.8309 18.172 46.0469 17.764C46.2629 17.356 46.4189 17.092 46.5149 16.972C46.6349 16.828 46.8749 16.756 47.2349 16.756C47.5949 16.756 47.8709 16.888 48.0629 17.152C48.2549 17.416 48.4349 17.836 48.6029 18.412C48.7709 18.964 48.9389 19.588 49.1069 20.284C49.2749 20.98 49.4189 21.448 49.5389 21.688C49.6829 21.928 49.8629 22.048 50.0789 22.048ZM53.5878 20.176C53.6358 20.104 53.7438 19.588 53.9118 18.628C54.1038 17.668 54.3198 16.732 54.5598 15.82C54.8238 14.884 55.2798 14.02 55.9278 13.228C56.5998 12.436 57.4038 12.04 58.3398 12.04C60.1638 12.04 61.6998 12.52 62.9478 13.48C64.2198 14.416 64.8558 15.628 64.8558 17.116C64.8558 18.604 65.0598 19.936 65.4678 21.112C65.8758 22.264 66.4158 22.84 67.0878 22.84C67.5438 22.84 68.1078 22.696 68.7798 22.408C69.8598 21.976 70.4958 21.76 70.6878 21.76C71.4078 21.76 71.7678 22.12 71.7678 22.84C71.7678 23.368 71.4078 23.752 70.6878 23.992C69.3438 24.664 68.1318 25 67.0518 25C65.9958 25 65.1198 24.556 64.4238 23.668C63.7278 22.756 63.2598 21.748 63.0198 20.644C62.8038 19.54 62.6958 18.352 62.6958 17.08C62.6958 16.24 62.2878 15.556 61.4718 15.028C60.6558 14.476 59.6238 14.2 58.3758 14.2C57.3678 14.2 56.5758 15.808 55.9998 19.024C55.7598 20.272 55.5918 20.992 55.4958 21.184C55.0878 22.024 53.9718 22.84 52.1478 23.632C51.7158 23.824 51.3678 23.92 51.1038 23.92C50.3838 23.92 50.0238 23.56 50.0238 22.84C50.0238 22.384 50.3838 22.012 51.1038 21.724C52.5198 21.148 53.3478 20.632 53.5878 20.176ZM82.1372 24.64C80.8652 24.64 79.8812 24.064 79.1852 22.912C78.5132 21.76 78.1772 20.44 78.1772 18.952C78.1772 18.184 78.5372 17.8 79.2572 17.8C79.9772 17.8 80.3372 18.232 80.3372 19.096C80.3372 19.96 80.5052 20.74 80.8412 21.436C81.1772 22.132 81.5852 22.48 82.0652 22.48C82.5692 22.48 83.1812 22.36 83.9012 22.12C84.6212 21.88 85.0172 21.76 85.0892 21.76C85.8092 21.76 86.1692 22.12 86.1692 22.84C86.1692 23.368 85.8092 23.752 85.0892 23.992C83.7932 24.424 82.8092 24.64 82.1372 24.64ZM74.9372 1.312L74.9012 1.924C74.6132 4.804 74.4212 6.94 74.3252 8.332C74.2532 9.724 74.2172 11.404 74.2172 13.372C74.2172 15.316 74.2772 16.588 74.3972 17.188C74.9732 15.916 75.9572 14.74 77.3492 13.66C78.7412 12.58 80.4572 12.04 82.4972 12.04C83.2172 12.04 83.5772 12.4 83.5772 13.12C83.5772 13.84 83.2172 14.2 82.4972 14.2C81.5132 14.2 80.6012 14.38 79.7612 14.74C78.9452 15.1 78.2972 15.544 77.8172 16.072C76.9052 17.08 76.3292 17.98 76.0892 18.772C76.0412 18.916 75.9572 19.228 75.8372 19.708C75.7412 20.164 75.6692 20.464 75.6212 20.608C75.5972 20.776 75.5132 20.992 75.3692 21.256C75.1292 21.712 74.7452 21.94 74.2172 21.94C73.7132 21.94 73.2212 21.148 72.7412 19.564C72.2852 17.956 72.0572 16.528 72.0572 15.28C72.0572 14.032 72.0572 12.916 72.0572 11.932C72.0812 10.924 72.0932 10.132 72.0932 9.556C72.1172 8.956 72.1652 8.224 72.2372 7.36C72.3092 6.496 72.3452 5.932 72.3452 5.668C72.3932 4.54 72.5372 3.076 72.7772 1.276C72.8492 0.579999 73.2092 0.231999 73.8572 0.231999C74.5772 0.231999 74.9372 0.591999 74.9372 1.312ZM86.4713 8.8C86.4713 7.408 87.1913 6.244 88.6313 5.308C90.0953 4.372 92.3273 3.904 95.3273 3.904C99.0233 3.904 100.871 5.536 100.871 8.8C100.871 9.832 100.463 10.816 99.6473 11.752C99.2153 12.232 98.2433 12.832 96.7313 13.552C95.8913 13.936 94.8113 14.272 93.4913 14.56C92.1953 14.848 91.5353 14.992 91.5113 14.992C90.7913 14.992 90.4313 14.632 90.4313 13.912C90.4313 13.384 90.7913 13.036 91.5113 12.868C92.2313 12.676 92.7353 12.544 93.0233 12.472C93.3353 12.4 93.8513 12.268 94.5713 12.076C95.2913 11.86 95.8313 11.656 96.1913 11.464C96.5513 11.272 96.9593 11.044 97.4153 10.78C98.2793 10.276 98.7113 9.568 98.7113 8.656C98.7113 7.72 98.4833 7.06 98.0273 6.676C97.5953 6.268 96.7193 6.064 95.3993 6.064C94.0793 6.064 92.9513 6.16 92.0153 6.352C91.0793 6.544 90.3833 6.784 89.9273 7.072C89.0633 7.648 88.6313 8.236 88.6313 8.836C88.6313 10.42 88.9553 12.772 89.6033 15.892C90.2753 19.012 90.7553 21.088 91.0433 22.12C91.3553 23.128 91.5113 23.728 91.5113 23.92C91.5113 24.64 91.1513 25 90.4313 25C90.0953 25 89.8553 24.916 89.7113 24.748C89.5673 24.58 89.3273 23.872 88.9913 22.624C88.6553 21.376 88.1513 19.192 87.4793 16.072C86.8073 12.928 86.4713 10.504 86.4713 8.8ZM105.208 14.92C105.928 14.92 106.288 15.28 106.288 16C106.288 16.288 106.228 16.576 106.108 16.864C105.988 17.152 105.928 17.5 105.928 17.908C105.928 18.292 106.048 18.688 106.288 19.096C106.552 19.504 106.924 19.948 107.404 20.428C107.884 20.884 108.604 21.28 109.564 21.616C110.524 21.952 111.484 22.12 112.444 22.12C113.428 22.12 114.268 21.868 114.964 21.364C115.66 20.86 116.008 20.152 116.008 19.24C116.008 17.728 115.66 16.516 114.964 15.604C114.268 14.668 113.296 14.2 112.048 14.2C111.472 14.2 110.884 14.38 110.284 14.74C109.708 15.1 109.336 15.28 109.168 15.28C108.448 15.28 108.088 14.92 108.088 14.2C108.088 13.744 108.496 13.276 109.312 12.796C110.152 12.292 111.064 12.04 112.048 12.04C113.872 12.04 115.348 12.712 116.476 14.056C117.604 15.376 118.168 17.104 118.168 19.24C118.168 20.776 117.592 22 116.44 22.912C115.312 23.824 114.1 24.28 112.804 24.28C111.508 24.28 110.32 24.124 109.24 23.812C108.184 23.476 107.332 23.068 106.684 22.588C106.036 22.084 105.472 21.544 104.992 20.968C104.176 19.96 103.768 19.036 103.768 18.196C103.768 17.332 103.9 16.576 104.164 15.928C104.428 15.256 104.776 14.92 105.208 14.92ZM127.941 7.144C128.325 7.144 128.721 7.324 129.129 7.684C129.537 8.02 129.741 8.38 129.741 8.764C129.741 9.124 129.573 9.4 129.237 9.592C128.925 9.784 128.577 9.88 128.193 9.88C127.809 9.88 127.485 9.712 127.221 9.376C126.981 9.016 126.861 8.632 126.861 8.224C126.861 7.504 127.221 7.144 127.941 7.144ZM124.701 20.536C123.357 21.976 121.989 23.008 120.597 23.632C120.165 23.824 119.817 23.92 119.553 23.92C118.833 23.92 118.473 23.56 118.473 22.84C118.473 22.384 118.833 22.012 119.553 21.724C119.937 21.58 120.441 21.292 121.065 20.86C121.713 20.428 122.145 20.104 122.361 19.888C122.577 19.672 122.949 19.276 123.477 18.7C124.029 18.124 124.461 17.692 124.773 17.404C125.085 17.092 125.505 16.78 126.033 16.468C126.585 16.156 127.089 16 127.545 16C128.481 16 129.201 16.336 129.705 17.008C130.209 17.68 130.509 18.424 130.605 19.24C130.869 21.4 131.289 22.48 131.865 22.48C132.321 22.48 132.909 22.36 133.629 22.12C134.349 21.88 134.745 21.76 134.817 21.76C135.537 21.76 135.897 22.12 135.897 22.84C135.897 23.368 135.537 23.752 134.817 23.992C133.521 24.424 132.465 24.64 131.649 24.64C130.857 24.64 130.209 24.304 129.705 23.632C129.201 22.96 128.901 22.216 128.805 21.4C128.541 19.24 128.121 18.16 127.545 18.16C127.233 18.16 126.873 18.364 126.465 18.772C126.081 19.156 125.769 19.468 125.529 19.708C125.289 19.924 125.013 20.2 124.701 20.536ZM157.494 23.992C156.198 24.424 155.19 24.64 154.47 24.64C153.75 24.64 153.186 24.376 152.778 23.848C152.37 23.32 151.998 22.42 151.662 21.148C151.35 19.876 151.11 19.24 150.942 19.24C150.318 19.24 149.658 20.2 148.962 22.12C148.698 22.84 148.266 23.5 147.666 24.1C147.066 24.7 146.31 25 145.398 25C144.51 25 143.814 24.604 143.31 23.812C142.806 23.02 142.506 22.156 142.41 21.22C142.338 20.284 142.218 19.42 142.05 18.628C141.882 17.836 141.606 17.44 141.222 17.44C140.958 17.44 140.766 17.512 140.646 17.656C140.526 17.8 140.418 17.944 140.322 18.088C140.25 18.208 140.166 18.34 140.07 18.484C139.998 18.604 139.902 18.772 139.782 18.988C139.686 19.204 139.566 19.432 139.422 19.672C138.942 20.512 138.558 21.136 138.27 21.544C137.694 22.456 136.842 23.152 135.714 23.632C135.282 23.824 134.934 23.92 134.67 23.92C133.95 23.92 133.59 23.56 133.59 22.84C133.59 22.384 133.974 22.012 134.742 21.724C135.51 21.436 136.05 21.028 136.362 20.5C136.698 19.948 137.07 19.324 137.478 18.628C137.886 17.932 138.162 17.464 138.306 17.224C138.474 16.984 138.678 16.696 138.918 16.36C139.158 16 139.374 15.772 139.566 15.676C140.07 15.412 140.622 15.28 141.222 15.28C142.206 15.28 142.95 15.676 143.454 16.468C143.958 17.26 144.246 18.124 144.318 19.06C144.414 19.996 144.546 20.86 144.714 21.652C144.882 22.444 145.158 22.84 145.542 22.84C145.926 22.84 146.286 22.54 146.622 21.94C146.982 21.34 147.294 20.68 147.558 19.96C147.822 19.24 148.242 18.58 148.818 17.98C149.418 17.38 150.126 17.08 150.942 17.08C151.566 17.08 152.022 17.236 152.31 17.548C152.598 17.836 152.802 18.064 152.922 18.232C153.066 18.4 153.186 18.652 153.282 18.988C153.402 19.324 153.486 19.576 153.534 19.744C153.582 19.888 153.654 20.152 153.75 20.536C154.038 21.856 154.302 22.504 154.542 22.48C154.998 22.48 155.586 22.36 156.306 22.12C157.026 21.88 157.422 21.76 157.494 21.76C158.214 21.76 158.574 22.12 158.574 22.84C158.574 23.368 158.214 23.752 157.494 23.992ZM161.054 11.104C161.03 10.768 161.018 10.24 161.018 9.52C161.018 6.928 161.258 4.192 161.738 1.312C161.858 0.591999 162.218 0.231999 162.818 0.231999C163.538 0.231999 163.898 0.579999 163.898 1.276C163.898 1.396 163.874 1.6 163.826 1.888C163.394 4.48 163.178 7.024 163.178 9.52V10.708C166.322 10.156 168.602 9.88 170.018 9.88C170.738 9.88 171.098 10.24 171.098 10.96C171.098 11.68 170.738 12.04 170.018 12.04C168.626 12.04 166.382 12.316 163.286 12.868C163.79 19.516 165.914 22.84 169.658 22.84C170.498 22.84 171.542 22.66 172.79 22.3C174.038 21.94 174.698 21.76 174.77 21.76C175.49 21.76 175.85 22.12 175.85 22.84C175.85 23.368 175.49 23.752 174.77 23.992C172.754 24.664 171.05 25 169.658 25C167.426 25 165.542 24.088 164.006 22.264C162.47 20.44 161.522 17.44 161.162 13.264L160.334 13.444C160.118 13.468 159.986 13.48 159.938 13.48C159.218 13.48 158.858 13.12 158.858 12.4C158.858 11.824 159.218 11.464 159.938 11.32C160.394 11.224 160.766 11.152 161.054 11.104Z" fill="white"/>
</svg>
